<svg id="Layer_1" data-name="Layer 1" xmlns="http://www.w3.org/2000/svg" viewBox="0 0 16 16"><defs><style>.cls-1{fill:#fff;}.cls-2{fill:#59f;}.cls-3{fill:#999;}.cls-4{fill:#666;}</style></defs><title>content-calendar</title><path class="cls-1" d="M1,1H15V15H1Z"/><rect class="cls-2" x="1" y="1" width="14" height="7"/><polygon class="cls-3" points="14 8 14 14 2 14 2 9 2 8 1 8 1 15 15 15 15 8 14 8"/><path class="cls-1" d="M11.93,6h-3l.75-1,.75-1,.75,1Z"/><path class="cls-1" d="M12.93,6H10.26l.67-.67.66-.66.67.66Z"/><circle class="cls-1" cx="12.5" cy="3.5" r="0.5"/><rect class="cls-4" x="3" y="5" width="5" height="6"/><path class="cls-1" d="M7,10H4.08V9.42L5.46,8a3.22,3.22,0,0,0,.42-.55A.87.87,0,0,0,6,7a.64.64,0,0,0-.15-.45.5.5,0,0,0-.41-.16.53.53,0,0,0-.45.2.76.76,0,0,0-.16.51H4a1.47,1.47,0,0,1,.18-.71,1.34,1.34,0,0,1,.53-.5,1.62,1.62,0,0,1,.77-.18A1.5,1.5,0,0,1,6.5,6a1.12,1.12,0,0,1,.36.89,1.45,1.45,0,0,1-.16.65,3.71,3.71,0,0,1-.56.76l-1,1H7Z"/></svg>